<svg width="39" height="39" viewBox="0 0 39 39" fill="none" xmlns="http://www.w3.org/2000/svg">
<g clip-path="url(#clip0_13_11)">
<mask id="mask0_13_11" style="mask-type:luminance" maskUnits="userSpaceOnUse" x="0" y="0" width="39" height="39">
<path d="M39 0H0V39H39V0Z" fill="white"/>
</mask>
<g mask="url(#mask0_13_11)">
<path fill-rule="evenodd" clip-rule="evenodd" d="M20.8929 0.78C20.8929 0.349218 20.5436 0 20.1129 0H18.8871C18.4564 0 18.1071 0.349218 18.1071 0.78V8.32161C18.1071 9.17892 16.9251 9.40869 16.6039 8.61379L13.7788 1.62134C13.6174 1.22192 13.1628 1.02895 12.7634 1.19033L11.6269 1.64949C11.2275 1.81086 11.0346 2.26547 11.1959 2.66489L14.2078 10.1195C14.5261 10.9073 13.5339 11.5641 12.933 10.9633L7.24786 5.27806C6.94325 4.97346 6.44937 4.97346 6.14476 5.27806L5.27806 6.14476C4.97346 6.44937 4.97346 6.94325 5.27806 7.24786L10.3833 12.3531C10.9928 12.9626 10.3093 13.9645 9.51951 13.6194L2.90345 10.7288C2.50869 10.5563 2.04888 10.7365 1.87641 11.1313L1.38568 12.2545C1.21321 12.6492 1.3934 13.109 1.78815 13.2815L9.41185 16.6124C10.1863 16.9508 9.94475 18.1071 9.09956 18.1071H0.78C0.349218 18.1071 0 18.4564 0 18.8871V20.1129C0 20.5436 0.349218 20.8929 0.78 20.8929H9.09952C9.94471 20.8929 10.1863 22.0492 9.41181 22.3876L1.78816 25.7185C1.39341 25.8909 1.21322 26.3507 1.38569 26.7454L1.87642 27.8686C2.04888 28.2635 2.50871 28.4437 2.90345 28.2711L9.51951 25.3806C10.3093 25.0355 10.9928 26.0374 10.3833 26.6469L5.27806 31.752C4.97346 32.0568 4.97346 32.5506 5.27806 32.8552L6.14478 33.7219C6.44937 34.0265 6.94325 34.0265 7.24786 33.7219L12.933 28.0367C13.5339 27.4359 14.5261 28.0927 14.2078 28.8805L11.1959 36.3351C11.0346 36.7345 11.2275 37.189 11.6269 37.3505L12.7634 37.8097C13.1628 37.971 13.6174 37.7781 13.7788 37.3786L16.6039 30.3863C16.9251 29.5912 18.1071 29.8212 18.1071 30.6784V38.22C18.1071 38.6508 18.4564 39 18.8871 39H20.1129C20.5436 39 20.8929 38.6508 20.8929 38.22V30.6784C20.8929 29.8212 22.075 29.5912 22.3961 30.3863L25.2211 37.3786C25.3826 37.7781 25.8371 37.971 26.2367 37.8097L27.3731 37.3505C27.7725 37.189 27.9655 36.7345 27.8041 36.3351L24.7923 28.8805C24.4739 28.0927 25.466 27.4359 26.067 28.0367L31.752 33.7219C32.0568 34.0265 32.5506 34.0265 32.8552 33.7219L33.7219 32.8552C34.0265 32.5506 34.0265 32.0568 33.7219 31.752L28.6166 26.6469C28.0073 26.0374 28.6907 25.0355 29.4805 25.3806L36.0964 28.2711C36.4913 28.4437 36.9511 28.2635 37.1235 27.8686L37.6143 26.7454C37.7867 26.3507 37.6065 25.8909 37.2118 25.7185L29.5881 22.3876C28.8138 22.0492 29.0552 20.8929 29.9005 20.8929H38.22C38.6508 20.8929 39 20.5436 39 20.1129V18.8871C39 18.4564 38.6508 18.1071 38.22 18.1071H29.9005C29.0552 18.1071 28.8136 16.9508 29.5881 16.6124L37.2118 13.2815C37.6065 13.109 37.7867 12.6492 37.6143 12.2545L37.1235 11.1313C36.9511 10.7365 36.4913 10.5563 36.0964 10.7288L29.4805 13.6194C28.6907 13.9645 28.0073 12.9626 28.6166 12.3531L33.7219 7.24784C34.0265 6.94323 34.0265 6.44937 33.7219 6.14476L32.8552 5.27805C32.5506 4.97344 32.0568 4.97344 31.752 5.27805L26.067 10.9632C25.466 11.5641 24.4739 10.9073 24.7923 10.1195L27.8041 2.66489C27.9655 2.26547 27.7725 1.81086 27.3731 1.64949L26.2367 1.19033C25.8371 1.02895 25.3826 1.22192 25.2211 1.62134L22.3961 8.61379C22.075 9.40869 20.8929 9.17892 20.8929 8.32161V0.78Z" fill="url(#paint0_linear_13_11)"/>
</g>
</g>
<defs>
<linearGradient id="paint0_linear_13_11" x1="5.3625" y1="3.705" x2="29.055" y2="34.0275" gradientUnits="userSpaceOnUse">
<stop stop-color="#FFD9A0"/>
<stop offset="1" stop-color="#FFF5F1"/>
</linearGradient>
<clipPath id="clip0_13_11">
<rect width="39" height="39" fill="white"/>
</clipPath>
</defs>
</svg>
